<?xml version="1.0" encoding="utf-8"?>
<!-- Generator: Adobe Illustrator 16.0.4, SVG Export Plug-In . SVG Version: 6.00 Build 0)  -->
<!DOCTYPE svg PUBLIC "-//W3C//DTD SVG 1.1//EN" "http://www.w3.org/Graphics/SVG/1.1/DTD/svg11.dtd">
<svg version="1.1" id="Group_1_1_" xmlns="http://www.w3.org/2000/svg" xmlns:xlink="http://www.w3.org/1999/xlink" x="0px" y="0px"
	 width="388.8px" height="148.8px" viewBox="0 0 388.8 148.8" enable-background="new 0 0 388.8 148.8" xml:space="preserve">
<g id="STEPHEN_RAFFAY_x0D_">
	<rect x="-410" y="-0.145" fill="none" width="1200" height="70.206"/>
	<text transform="matrix(1 0 0 1 -3.5601 49.895)" font-family="'TimesNewRomanPSMT'" font-size="72" letter-spacing="-3">S</text>
	<text transform="matrix(1 0 0 1 31.3999 49.895)" font-family="'TimesNewRomanPSMT'" font-size="48" letter-spacing="-1">TE</text>
	<text transform="matrix(1 0 0 1 82.6802 49.895)" font-family="'TimesNewRomanPSMT'" font-size="48" letter-spacing="-5">P</text>
	<text transform="matrix(1 0 0 1 106.3198 49.895)" font-family="'TimesNewRomanPSMT'" font-size="48" letter-spacing="-1">H</text>
	<text transform="matrix(1 0 0 1 137.96 49.895)" font-family="'TimesNewRomanPSMT'" font-size="48" letter-spacing="-1">E</text>
	<text transform="matrix(1 0 0 1 163.6001 49.895)" font-family="'TimesNewRomanPSMT'" font-size="48" letter-spacing="-1">N</text>
	<text transform="matrix(1 0 0 1 195.2397 49.895)" font-family="'TimesNewRomanPSMT'" font-size="60" letter-spacing="-3"> </text>
	<text transform="matrix(1 0 0 1 206.0405 49.895)" font-family="'TimesNewRomanPSMT'" font-size="72" letter-spacing="-3">R</text>
	<text transform="matrix(1 0 0 1 248.9995 49.895)" font-family="'TimesNewRomanPSMT'" font-size="48" letter-spacing="-7">A</text>
	<text transform="matrix(1 0 0 1 280.6401 49.895)" font-family="'TimesNewRomanPSMT'" font-size="48" letter-spacing="-1">F</text>
	<text transform="matrix(1 0 0 1 304.2788 49.895)" font-family="'TimesNewRomanPSMT'" font-size="48" letter-spacing="-6">F</text>
	<text transform="matrix(1 0 0 1 323.9194 49.895)" font-family="'TimesNewRomanPSMT'" font-size="48" letter-spacing="-12">A</text>
	<text transform="matrix(1 0 0 1 350.5601 49.895)" font-family="'TimesNewRomanPSMT'" font-size="48" letter-spacing="-7">Y</text>
</g>
<g id="PHOTOGRAPHY">
	<rect x="-410" y="80.536" fill="none" width="1200" height="70.206"/>
	<text transform="matrix(1 0 0 1 4.5991 97.2144)" font-family="'TimesNewRomanPSMT'" font-size="24" letter-spacing="17">P</text>
	<text transform="matrix(1 0 0 1 37.2793 97.2144)" font-family="'TimesNewRomanPSMT'" font-size="24" letter-spacing="18">HO</text>
	<text transform="matrix(1 0 0 1 110.6392 97.2144)" font-family="'TimesNewRomanPSMT'" font-size="24" letter-spacing="17">T</text>
	<text transform="matrix(1 0 0 1 144.3188 97.2144)" font-family="'TimesNewRomanPSMT'" font-size="24" letter-spacing="18">OG</text>
	<text transform="matrix(1 0 0 1 217.6792 97.2144)" font-family="'TimesNewRomanPSMT'" font-size="24" letter-spacing="18">R</text>
	<text transform="matrix(1 0 0 1 253.3589 97.2144)" font-family="'TimesNewRomanPSMT'" font-size="24" letter-spacing="15">A</text>
	<text transform="matrix(1 0 0 1 290.0386 97.2144)" font-family="'TimesNewRomanPSMT'" font-size="24" letter-spacing="17">P</text>
	<text transform="matrix(1 0 0 1 322.7183 97.2144)" font-family="'TimesNewRomanPSMT'" font-size="24" letter-spacing="18">H</text>
	<text transform="matrix(1 0 0 1 359.3979 97.2144)" font-family="'TimesNewRomanPSMT'" font-size="24" letter-spacing="16">Y</text>
</g>
<g id="Capturing_Impressions">
	<rect x="-410" y="125.475" fill="none" width="1200" height="70.207"/>
	<text transform="matrix(1 0 0 1 80.499 142.2739)" font-family="'TimesNewRomanPS-ItalicMT'" font-size="24">C</text>
	<text transform="matrix(1 0 0 1 96.499 142.2739)" font-family="'TimesNewRomanPS-ItalicMT'" font-size="24">ap</text>
	<text transform="matrix(1 0 0 1 120.499 142.2739)" font-family="'TimesNewRomanPS-ItalicMT'" font-size="24">t</text>
	<text transform="matrix(1 0 0 1 127.499 142.2739)" font-family="'TimesNewRomanPS-ItalicMT'" font-size="24">u</text>
	<text transform="matrix(1 0 0 1 139.499 142.2739)" font-family="'TimesNewRomanPS-ItalicMT'" font-size="24">r</text>
	<text transform="matrix(1 0 0 1 148.499 142.2739)" font-family="'TimesNewRomanPS-ItalicMT'" font-size="24">i</text>
	<text transform="matrix(1 0 0 1 155.499 142.2739)" font-family="'TimesNewRomanPS-ItalicMT'" font-size="24">ng </text>
	<text transform="matrix(1 0 0 1 185.499 142.2739)" font-family="'TimesNewRomanPS-ItalicMT'" font-size="24">I</text>
	<text transform="matrix(1 0 0 1 193.499 142.2739)" font-family="'TimesNewRomanPS-ItalicMT'" font-size="24">m</text>
	<text transform="matrix(1 0 0 1 210.4995 142.2739)" font-family="'TimesNewRomanPS-ItalicMT'" font-size="24">p</text>
	<text transform="matrix(1 0 0 1 222.4995 142.2739)" font-family="'TimesNewRomanPS-ItalicMT'" font-size="24">r</text>
	<text transform="matrix(1 0 0 1 230.4995 142.2739)" font-family="'TimesNewRomanPS-ItalicMT'" font-size="24">e</text>
	<text transform="matrix(1 0 0 1 241.4995 142.2739)" font-family="'TimesNewRomanPS-ItalicMT'" font-size="24">ss</text>
	<text transform="matrix(1 0 0 1 259.4995 142.2739)" font-family="'TimesNewRomanPS-ItalicMT'" font-size="24">i</text>
	<text transform="matrix(1 0 0 1 266.4995 142.2739)" font-family="'TimesNewRomanPS-ItalicMT'" font-size="24">on</text>
	<text transform="matrix(1 0 0 1 290.4995 142.2739)" font-family="'TimesNewRomanPS-ItalicMT'" font-size="24">s</text>
</g>
<g id="Shape_1_xA0_Image_1_">
	<line fill="none" stroke="#000000" stroke-width="1.9537" stroke-miterlimit="10" x1="2.5" y1="66.001" x2="377.5" y2="66.001"/>
</g>
</svg>
